<svg width="20" height="20" viewBox="0 0 20 20" fill="none" xmlns="http://www.w3.org/2000/svg">
<path d="M17.692 4.01131C17.4852 3.76311 17.2263 3.5635 16.9337 3.42664C16.641 3.28979 16.3218 3.21904 15.9988 3.21944H4.11114L4.08026 2.96136C4.01706 2.42493 3.75924 1.93034 3.35566 1.57135C2.95208 1.21236 2.43081 1.01392 1.89067 1.01367L1.72744 1.01367C1.53244 1.01367 1.34543 1.09114 1.20754 1.22902C1.06965 1.36691 0.992188 1.55393 0.992188 1.74893C0.992188 1.94393 1.06965 2.13094 1.20754 2.26883C1.34543 2.40672 1.53244 2.48418 1.72744 2.48418H1.89067C2.07076 2.48421 2.24458 2.55032 2.37915 2.66999C2.51373 2.78966 2.59971 2.95456 2.62078 3.13341L3.63249 11.7359C3.73752 12.6306 4.16737 13.4555 4.84045 14.0542C5.51352 14.6528 6.38297 14.9835 7.28377 14.9835H14.962C15.157 14.9835 15.3441 14.9061 15.4819 14.7682C15.6198 14.6303 15.6973 14.4433 15.6973 14.2483C15.6973 14.0533 15.6198 13.8663 15.4819 13.7284C15.3441 13.5905 15.157 13.513 14.962 13.513H7.28377C6.82869 13.5117 6.38514 13.3697 6.01393 13.1065C5.64273 12.8432 5.36204 12.4716 5.21035 12.0425H13.9746C14.8365 12.0426 15.6711 11.7397 16.3324 11.187C16.9938 10.6342 17.4399 9.86666 17.5928 9.0184L18.17 5.8171C18.2276 5.49947 18.2146 5.17306 18.132 4.861C18.0494 4.54893 17.8992 4.25885 17.692 4.01131ZM16.7267 5.55608L16.1487 8.75738C16.0569 9.26691 15.7888 9.72791 15.3913 10.0597C14.9938 10.3914 14.4923 10.5728 13.9746 10.572H4.97654L4.28466 4.68995H15.9988C16.1068 4.6893 16.2136 4.71246 16.3116 4.75778C16.4097 4.8031 16.4965 4.86946 16.566 4.95215C16.6355 5.03483 16.6859 5.13182 16.7137 5.2362C16.7415 5.34058 16.7459 5.44979 16.7267 5.55608Z" fill="#FAFAFA"/>
<path d="M6.13457 18.6607C6.94671 18.6607 7.60508 18.0024 7.60508 17.1902C7.60508 16.3781 6.94671 15.7197 6.13457 15.7197C5.32243 15.7197 4.66406 16.3781 4.66406 17.1902C4.66406 18.0024 5.32243 18.6607 6.13457 18.6607Z" fill="#FAFAFA"/>
<path d="M13.49 18.6607C14.3022 18.6607 14.9606 18.0024 14.9606 17.1902C14.9606 16.3781 14.3022 15.7197 13.49 15.7197C12.6779 15.7197 12.0195 16.3781 12.0195 17.1902C12.0195 18.0024 12.6779 18.6607 13.49 18.6607Z" fill="#FAFAFA"/>
</svg>
