<svg width="21" height="21" viewBox="0 0 21 21" fill="none" xmlns="http://www.w3.org/2000/svg">
<path d="M8.05208 12.8042L15.3971 5.45922C15.5704 5.28589 15.7726 5.19922 16.0038 5.19922C16.2349 5.19922 16.4371 5.28589 16.6104 5.45922C16.7837 5.63255 16.8704 5.83853 16.8704 6.07715C16.8704 6.31577 16.7837 6.52146 16.6104 6.69422L8.65875 14.6676C8.48542 14.8409 8.28319 14.9276 8.05208 14.9276C7.82097 14.9276 7.61875 14.8409 7.44542 14.6676L3.71875 10.9409C3.54542 10.7676 3.46222 10.5619 3.46915 10.3238C3.47608 10.0858 3.56651 9.8798 3.74042 9.70589C3.91433 9.53197 4.12031 9.44531 4.35835 9.44589C4.59639 9.44646 4.80208 9.53313 4.97542 9.70589L8.05208 12.8042Z" fill="#27C840"/>
</svg>
