<svg width="13" height="12" viewBox="0 0 13 12" fill="none" xmlns="http://www.w3.org/2000/svg">
<g clip-path="url(#clip0_528_22747)">
<mask id="mask0_528_22747" style="mask-type:luminance" maskUnits="userSpaceOnUse" x="0" y="0" width="13" height="12">
<path d="M0.75 0H12.75V12H0.75V0Z" fill="white"/>
</mask>
<g mask="url(#mask0_528_22747)">
<path fill-rule="evenodd" clip-rule="evenodd" d="M1.94141 7.75195C2.18303 7.75195 2.37891 7.94782 2.37891 8.18945V9.06445C2.37891 9.78532 2.97053 10.377 3.69141 10.377H9.81641C10.5373 10.377 11.1289 9.78532 11.1289 9.06445V8.18945C11.1289 7.94782 11.3248 7.75195 11.5664 7.75195C11.808 7.75195 12.0039 7.94782 12.0039 8.18945V9.06445C12.0039 10.2686 11.0205 11.252 9.81641 11.252H3.69141C2.48728 11.252 1.50391 10.2686 1.50391 9.06445V8.18945C1.50391 7.94782 1.69978 7.75195 1.94141 7.75195Z" fill="#F7F7F7"/>
<path fill-rule="evenodd" clip-rule="evenodd" d="M6.75391 0.75C6.99554 0.75 7.19141 0.945875 7.19141 1.1875V8.1875C7.19141 8.42913 6.99554 8.625 6.75391 8.625C6.51228 8.625 6.31641 8.42913 6.31641 8.1875V1.1875C6.31641 0.945875 6.51228 0.75 6.75391 0.75Z" fill="#F7F7F7"/>
<path fill-rule="evenodd" clip-rule="evenodd" d="M4.25314 5.68868C4.424 5.51784 4.701 5.51784 4.87186 5.68868L6.75 7.56682L8.62814 5.68868C8.79899 5.51784 9.07601 5.51784 9.24686 5.68868C9.4177 5.85952 9.4177 6.13655 9.24686 6.30739L7.05936 8.49489C6.88851 8.66574 6.61149 8.66574 6.44064 8.49489L4.25314 6.30739C4.08229 6.13655 4.08229 5.85952 4.25314 5.68868Z" fill="#F7F7F7"/>
</g>
</g>
<defs>
<clipPath id="clip0_528_22747">
<rect width="12" height="12" fill="white" transform="translate(0.75)"/>
</clipPath>
</defs>
</svg>
